<svg id="Layer_1" data-name="Layer 1" xmlns="http://www.w3.org/2000/svg" width="8cm" height="5cm" viewBox="0 0 226.76 141.73"><defs><style>.cls-1{fill:#fff;}</style></defs><path class="cls-1" d="M61.43,141.73A4.72,4.72,0,0,1,56.7,137V4.73a4.78,4.78,0,0,1,1.53-3.49A4.63,4.63,0,0,1,61.84,0L222.46,14.2a4.73,4.73,0,0,1,4.31,4.7V122.84a4.72,4.72,0,0,1-4.31,4.7L61.84,141.71l-.41,0ZM66.15,9.89v122l151.17-13.34V23.23Zm155.9,113h0Z" transform="translate(-0.01 0)"/><path class="cls-1" d="M61.43,141.73a4.58,4.58,0,0,1-1.15-.14L3.59,127.42A4.72,4.72,0,0,1,0,122.84V18.9a4.72,4.72,0,0,1,3.58-4.58L60.28.15a4.72,4.72,0,1,1,2.29,9.16L9.46,22.6v96.55l53.11,13.28a4.72,4.72,0,0,1-1.14,9.3Z" transform="translate(-0.01 0)"/><path class="cls-1" d="M33.08,134.65a4.72,4.72,0,0,1-4.72-4.73V11.82a4.72,4.72,0,1,1,9.44,0v118.1A4.72,4.72,0,0,1,33.08,134.65Z" transform="translate(-0.01 0)"/><path class="cls-1" d="M89.77,122.84a4.72,4.72,0,0,1-4.72-4.73V23.63a4.72,4.72,0,1,1,9.44,0v94.48A4.72,4.72,0,0,1,89.77,122.84Z" transform="translate(-0.01 0)"/><path class="cls-1" d="M127.56,118.11a4.73,4.73,0,0,1-4.72-4.72v-85a4.73,4.73,0,0,1,9.45,0v85A4.73,4.73,0,0,1,127.56,118.11Z" transform="translate(-0.01 0)"/><path class="cls-1" d="M165.36,113.39a4.73,4.73,0,0,1-4.73-4.73V33.08a4.73,4.73,0,1,1,9.45,0v75.58A4.73,4.73,0,0,1,165.36,113.39Z" transform="translate(-0.01 0)"/><path class="cls-1" d="M203.15,108.66a4.72,4.72,0,0,1-4.72-4.72V37.8a4.72,4.72,0,1,1,9.44,0v66.14A4.72,4.72,0,0,1,203.15,108.66Z" transform="translate(-0.01 0)"/></svg>